<svg xmlns="http://www.w3.org/2000/svg" viewBox="0 0 256 262" role="img" aria-label="Google">
  <path fill="#4285F4" d="M255.68 133.5c0-10.11-.91-19.84-2.6-29.17H130.5v55.18h70.22c-3.03 16.32-12.2 30.15-25.98 39.4v32.72h42.07c24.61-22.65 38.87-56.06 38.87-98.13z"/>
  <path fill="#34A853" d="M130.5 261.1c35.1 0 64.57-11.63 86.1-31.47l-42.07-32.72c-11.69 7.84-26.63 12.48-44.03 12.48-33.84 0-62.49-22.84-72.73-53.53H14.26v33.63c21.4 42.43 65.2 71.61 116.24 71.61z"/>
  <path fill="#FBBC05" d="M57.77 155.86c-2.6-7.84-4.09-16.2-4.09-24.86s1.49-17.02 4.09-24.86V72.51H14.26C5.23 90.48 0 110.02 0 131s5.23 40.52 14.26 58.49l43.51-33.63z"/>
  <path fill="#EA4335" d="M130.5 52.61c19.1 0 36.28 6.57 49.77 19.46l37.35-37.35C195.06 13.36 165.6 0 130.5 0 79.46 0 35.66 29.18 14.26 72.51l43.51 33.63c10.24-30.69 38.89-53.53 72.73-53.53z"/>
</svg>
