<svg xmlns="http://www.w3.org/2000/svg" viewBox="0 0 24 24" role="img" aria-label="Google">
  <path fill="#4285F4" d="M23.49 12.27c0-.79-.07-1.54-.2-2.27H12v4.51h6.44a5.5 5.5 0 0 1-2.38 3.61v3.01h3.86c2.26-2.08 3.57-5.15 3.57-8.86z"/>
  <path fill="#34A853" d="M12 24c3.24 0 5.96-1.07 7.95-2.89l-3.86-3.01c-1.07.72-2.44 1.15-4.09 1.15-3.14 0-5.8-2.12-6.75-4.98H1.27v3.1A12 12 0 0 0 12 24z"/>
  <path fill="#FBBC05" d="M5.25 14.27a7.2 7.2 0 0 1 0-4.54v-3.1H1.27a12 12 0 0 0 0 10.74l3.98-3.1z"/>
  <path fill="#EA4335" d="M12 4.75c1.76 0 3.34.61 4.58 1.8l3.43-3.43C17.95 1.19 15.23 0 12 0A12 12 0 0 0 1.27 6.63l3.98 3.1c.95-2.86 3.61-4.98 6.75-4.98z"/>
</svg>
